<mxfile host="65bd71144e">
    <diagram id="6a731a19-8d31-9384-78a2-239565b7b9f0" name="Page-1">
        <mxGraphModel dx="736" dy="468" grid="1" gridSize="10" guides="1" tooltips="1" connect="1" arrows="1" fold="1" page="1" pageScale="1" pageWidth="1169" pageHeight="827" background="none" math="0" shadow="0">
            <root>
                <mxCell id="0"/>
                <mxCell id="1" parent="0"/>
                <mxCell id="2" value="start" style="shape=mxgraph.flowchart.terminator;strokeWidth=2;gradientColor=none;gradientDirection=north;fontStyle=0;html=1;" parent="1" vertex="1">
                    <mxGeometry x="260" y="60" width="120" height="30" as="geometry"/>
                </mxCell>
                <mxCell id="3" value="On the landing page&lt;br&gt;user will press &lt;br&gt;a sign up/register button" style="shape=mxgraph.flowchart.data;strokeWidth=2;gradientColor=none;gradientDirection=north;fontStyle=0;html=1;" parent="1" vertex="1">
                    <mxGeometry x="240.5" y="130" width="159" height="80" as="geometry"/>
                </mxCell>
                <mxCell id="OBAQ0nGNFSTJi0p4dSJf-56" style="edgeStyle=orthogonalEdgeStyle;rounded=0;orthogonalLoop=1;jettySize=auto;html=1;entryX=0.5;entryY=0;entryDx=0;entryDy=0;entryPerimeter=0;" parent="1" source="5" target="OBAQ0nGNFSTJi0p4dSJf-55" edge="1">
                    <mxGeometry relative="1" as="geometry"/>
                </mxCell>
                <mxCell id="5" value="A dialog opens&lt;br&gt;where the user &lt;br&gt;has to enter&amp;nbsp;his data&lt;br&gt;in a form" style="shape=mxgraph.flowchart.data;strokeWidth=2;gradientColor=none;gradientDirection=north;fontStyle=0;html=1;" parent="1" vertex="1">
                    <mxGeometry x="240.5" y="250" width="159" height="90" as="geometry"/>
                </mxCell>
                <mxCell id="7" style="fontStyle=1;strokeColor=#003366;strokeWidth=1;html=1;" parent="1" source="2" target="3" edge="1">
                    <mxGeometry relative="1" as="geometry"/>
                </mxCell>
                <mxCell id="8" style="fontStyle=1;strokeColor=#003366;strokeWidth=1;html=1;" parent="1" source="3" target="5" edge="1">
                    <mxGeometry relative="1" as="geometry"/>
                </mxCell>
                <mxCell id="OBAQ0nGNFSTJi0p4dSJf-58" style="edgeStyle=orthogonalEdgeStyle;rounded=0;orthogonalLoop=1;jettySize=auto;html=1;entryX=0.5;entryY=1;entryDx=0;entryDy=0;" parent="1" source="OBAQ0nGNFSTJi0p4dSJf-55" target="OBAQ0nGNFSTJi0p4dSJf-57" edge="1">
                    <mxGeometry relative="1" as="geometry"/>
                </mxCell>
                <mxCell id="OBAQ0nGNFSTJi0p4dSJf-61" style="edgeStyle=orthogonalEdgeStyle;rounded=0;orthogonalLoop=1;jettySize=auto;html=1;entryX=0.5;entryY=0;entryDx=0;entryDy=0;entryPerimeter=0;" parent="1" source="OBAQ0nGNFSTJi0p4dSJf-55" target="OBAQ0nGNFSTJi0p4dSJf-60" edge="1">
                    <mxGeometry relative="1" as="geometry"/>
                </mxCell>
                <mxCell id="OBAQ0nGNFSTJi0p4dSJf-55" value="check if enterd data &lt;br&gt;is valid" style="shape=mxgraph.flowchart.decision;strokeWidth=2;gradientColor=none;gradientDirection=north;fontStyle=0;html=1;" parent="1" vertex="1">
                    <mxGeometry x="250.5" y="380" width="139" height="80" as="geometry"/>
                </mxCell>
                <mxCell id="OBAQ0nGNFSTJi0p4dSJf-59" style="edgeStyle=orthogonalEdgeStyle;rounded=0;orthogonalLoop=1;jettySize=auto;html=1;entryX=0.095;entryY=0.5;entryDx=0;entryDy=0;entryPerimeter=0;" parent="1" source="OBAQ0nGNFSTJi0p4dSJf-57" target="5" edge="1">
                    <mxGeometry relative="1" as="geometry">
                        <Array as="points">
                            <mxPoint x="130" y="295"/>
                        </Array>
                    </mxGeometry>
                </mxCell>
                <mxCell id="OBAQ0nGNFSTJi0p4dSJf-57" value="user corrects &lt;br&gt;invalid data" style="rounded=1;whiteSpace=wrap;html=1;" parent="1" vertex="1">
                    <mxGeometry x="70" y="330" width="120" height="50" as="geometry"/>
                </mxCell>
                <mxCell id="OBAQ0nGNFSTJi0p4dSJf-63" style="edgeStyle=orthogonalEdgeStyle;rounded=0;orthogonalLoop=1;jettySize=auto;html=1;entryX=0.5;entryY=0;entryDx=0;entryDy=0;entryPerimeter=0;" parent="1" source="OBAQ0nGNFSTJi0p4dSJf-60" target="OBAQ0nGNFSTJi0p4dSJf-62" edge="1">
                    <mxGeometry relative="1" as="geometry"/>
                </mxCell>
                <mxCell id="OBAQ0nGNFSTJi0p4dSJf-60" value="API will be called with&amp;nbsp;&lt;br&gt;POST /user {userObj}" style="shape=mxgraph.flowchart.data;strokeWidth=2;gradientColor=none;gradientDirection=north;fontStyle=0;html=1;" parent="1" vertex="1">
                    <mxGeometry x="240.5" y="510" width="159" height="80" as="geometry"/>
                </mxCell>
                <mxCell id="OBAQ0nGNFSTJi0p4dSJf-66" style="edgeStyle=orthogonalEdgeStyle;rounded=0;orthogonalLoop=1;jettySize=auto;html=1;" parent="1" source="OBAQ0nGNFSTJi0p4dSJf-62" target="OBAQ0nGNFSTJi0p4dSJf-65" edge="1">
                    <mxGeometry relative="1" as="geometry"/>
                </mxCell>
                <mxCell id="OBAQ0nGNFSTJi0p4dSJf-76" style="edgeStyle=orthogonalEdgeStyle;rounded=0;orthogonalLoop=1;jettySize=auto;html=1;entryX=0.5;entryY=0;entryDx=0;entryDy=0;entryPerimeter=0;" parent="1" source="OBAQ0nGNFSTJi0p4dSJf-62" target="OBAQ0nGNFSTJi0p4dSJf-71" edge="1">
                    <mxGeometry relative="1" as="geometry"/>
                </mxCell>
                <mxCell id="OBAQ0nGNFSTJi0p4dSJf-62" value="API returns OK&lt;br&gt;(201)" style="shape=mxgraph.flowchart.decision;strokeWidth=2;gradientColor=none;gradientDirection=north;fontStyle=0;html=1;" parent="1" vertex="1">
                    <mxGeometry x="255.25" y="640" width="129.5" height="80" as="geometry"/>
                </mxCell>
                <mxCell id="OBAQ0nGNFSTJi0p4dSJf-67" style="edgeStyle=orthogonalEdgeStyle;rounded=0;orthogonalLoop=1;jettySize=auto;html=1;entryX=0.905;entryY=0.5;entryDx=0;entryDy=0;entryPerimeter=0;" parent="1" source="OBAQ0nGNFSTJi0p4dSJf-65" target="5" edge="1">
                    <mxGeometry relative="1" as="geometry">
                        <Array as="points">
                            <mxPoint x="500" y="295"/>
                        </Array>
                    </mxGeometry>
                </mxCell>
                <mxCell id="OBAQ0nGNFSTJi0p4dSJf-65" value="user corrects &lt;br&gt;invalid data &lt;br&gt;and/or&amp;nbsp;retries" style="rounded=1;whiteSpace=wrap;html=1;" parent="1" vertex="1">
                    <mxGeometry x="440" y="490" width="120" height="60" as="geometry"/>
                </mxCell>
                <mxCell id="OBAQ0nGNFSTJi0p4dSJf-68" value="no" style="text;fontStyle=0;html=1;strokeColor=none;gradientColor=none;fillColor=none;strokeWidth=2;align=center;" parent="1" vertex="1">
                    <mxGeometry x="385" y="650" width="40" height="26" as="geometry"/>
                </mxCell>
                <mxCell id="OBAQ0nGNFSTJi0p4dSJf-69" value="no" style="text;fontStyle=0;html=1;strokeColor=none;gradientColor=none;fillColor=none;strokeWidth=2;align=center;" parent="1" vertex="1">
                    <mxGeometry x="210.5" y="388" width="40" height="26" as="geometry"/>
                </mxCell>
                <mxCell id="OBAQ0nGNFSTJi0p4dSJf-70" value="yes" style="text;fontStyle=0;html=1;strokeColor=none;gradientColor=none;fillColor=none;strokeWidth=2;" parent="1" vertex="1">
                    <mxGeometry x="329" y="450" width="40" height="26" as="geometry"/>
                </mxCell>
                <mxCell id="OBAQ0nGNFSTJi0p4dSJf-71" value="{ userObj }&lt;br&gt;retruned by API&lt;br&gt;is saved in state &lt;br&gt;by calling it's setter" style="shape=mxgraph.flowchart.data;strokeWidth=2;gradientColor=none;gradientDirection=north;fontStyle=0;html=1;" parent="1" vertex="1">
                    <mxGeometry x="240.5" y="770" width="159" height="80" as="geometry"/>
                </mxCell>
                <mxCell id="OBAQ0nGNFSTJi0p4dSJf-72" value="" style="edgeStyle=elbowEdgeStyle;elbow=horizontal;fontStyle=1;strokeColor=#003366;strokeWidth=1;html=1;" parent="1" source="OBAQ0nGNFSTJi0p4dSJf-71" target="OBAQ0nGNFSTJi0p4dSJf-75" edge="1">
                    <mxGeometry y="260" width="100" height="100" as="geometry">
                        <mxPoint y="360" as="sourcePoint"/>
                        <mxPoint x="320" y="900" as="targetPoint"/>
                        <Array as="points">
                            <mxPoint x="320" y="870"/>
                        </Array>
                    </mxGeometry>
                </mxCell>
                <mxCell id="OBAQ0nGNFSTJi0p4dSJf-73" value="end" style="shape=mxgraph.flowchart.terminator;strokeWidth=2;gradientColor=none;gradientDirection=north;fontStyle=0;html=1;" parent="1" vertex="1">
                    <mxGeometry x="260" y="1030" width="120" height="30" as="geometry"/>
                </mxCell>
                <mxCell id="OBAQ0nGNFSTJi0p4dSJf-74" style="edgeStyle=orthogonalEdgeStyle;rounded=0;orthogonalLoop=1;jettySize=auto;html=1;entryX=0.5;entryY=0;entryDx=0;entryDy=0;entryPerimeter=0;" parent="1" source="OBAQ0nGNFSTJi0p4dSJf-75" target="OBAQ0nGNFSTJi0p4dSJf-73" edge="1">
                    <mxGeometry relative="1" as="geometry"/>
                </mxCell>
                <mxCell id="OBAQ0nGNFSTJi0p4dSJf-75" value="Conditinal rendering &lt;br&gt;will show the user&amp;nbsp;&lt;br&gt;as logged in" style="shape=mxgraph.flowchart.data;strokeWidth=2;gradientColor=none;gradientDirection=north;fontStyle=0;html=1;" parent="1" vertex="1">
                    <mxGeometry x="240.5" y="900" width="159" height="80" as="geometry"/>
                </mxCell>
                <mxCell id="OBAQ0nGNFSTJi0p4dSJf-78" value="&lt;h1&gt;Legend&lt;/h1&gt;&lt;p&gt;&lt;span style=&quot;background-color: initial;&quot;&gt;{ userObj } - object with all the user's data, passed to the API from the signup from and returned by API if succesfull&lt;/span&gt;&lt;br&gt;&lt;/p&gt;&lt;p&gt;API calls:&amp;nbsp;&lt;br&gt;POST: /user { userObj } =&amp;gt; 201, {userObj}&lt;/p&gt;" style="text;html=1;strokeColor=none;fillColor=none;spacing=5;spacingTop=-20;whiteSpace=wrap;overflow=hidden;rounded=0;" parent="1" vertex="1">
                    <mxGeometry x="490" y="30" width="480" height="160" as="geometry"/>
                </mxCell>
                <mxCell id="MZrHwqw2i-oaMXF0Cay4-45" value="yes" style="text;fontStyle=0;html=1;strokeColor=none;gradientColor=none;fillColor=none;strokeWidth=2;" parent="1" vertex="1">
                    <mxGeometry x="329" y="720" width="40" height="26" as="geometry"/>
                </mxCell>
            </root>
        </mxGraphModel>
    </diagram>
</mxfile>